<?xml version="1.0" encoding="UTF-8"?>
<svg width="200" height="60" viewBox="0 0 200 60"
    xmlns="http://www.w3.org/2000/svg">
    <!-- Background circle for the icon -->
    <circle cx="30" cy="30" r="25" fill="#3498db" stroke="#2980b9" stroke-width="2"/>

    <!-- Shield icon representing protection -->
    <path d="M20 18 L30 12 L40 18 L40 28 C40 35 30 42 30 42 S20 35 20 28 Z" fill="white" stroke="none"/>

    <!-- Heart icon in the center representing care -->
    <path d="M27 22 C26 20 24 20 23 22 C22 20 20 20 19 22 C18 24 20 26 23 29 C26 26 28 24 27 22 Z
           M37 22 C36 20 34 20 33 22 C32 20 30 20 29 22 C28 24 30 26 33 29 C36 26 38 24 37 22 Z" fill="#e74c3c"/>

    <!-- Plus sign representing medical assistance -->
    <rect x="28" y="20" width="4" height="10" fill="white"/>
    <rect x="25" y="23" width="10" height="4" fill="white"/>

    <!-- Text -->
    <text x="65" y="25" font-family="Arial, sans-serif" font-size="18" font-weight="bold" fill="#2c3e50">GVRC</text>
    <text x="65" y="40" font-family="Arial, sans-serif" font-size="10" fill="#7f8c8d">Gender-Based Violence</text>
    <text x="65" y="50" font-family="Arial, sans-serif" font-size="10" fill="#7f8c8d">Response Center</text>
</svg>
